<?xml version="1.0" encoding="utf-8"?>
<!-- Generator: Adobe Illustrator 24.0.2, SVG Export Plug-In . SVG Version: 6.00 Build 0)  -->
<svg version="1.1" id="Слой_1" xmlns="http://www.w3.org/2000/svg" xmlns:xlink="http://www.w3.org/1999/xlink" x="0px" y="0px"
	 viewBox="0 0 64 64" style="enable-background:new 0 0 64 64;" xml:space="preserve">
<style type="text/css">
	.st0{fill:#FFFFFF;stroke:#000000;stroke-width:4;stroke-miterlimit:10;}
</style>
<rect class="st0" width="64" height="64"/>
<g>
	<path d="M27.83,18.47c-0.05,0.61-0.18,1.35-0.39,2.21c-0.21,0.86-0.6,1.8-1.17,2.81c-0.43,0.73-0.94,1.45-1.55,2.13
		c-0.6,0.69-1.27,1.3-2,1.82c-0.73,0.53-1.49,0.95-2.28,1.26c-0.8,0.31-1.59,0.47-2.39,0.47c-0.55,0-1.06-0.08-1.53-0.25
		c-0.47-0.17-0.86-0.41-1.19-0.73s-0.58-0.71-0.77-1.17s-0.28-0.98-0.28-1.56c0-0.44,0.07-0.93,0.21-1.47
		c0.14-0.54,0.36-1.09,0.68-1.65c0.31-0.57,0.71-1.14,1.2-1.72c0.49-0.58,1.08-1.15,1.77-1.7c1.36-1.09,2.89-1.94,4.59-2.57
		c1.7-0.63,3.43-0.94,5.19-0.94c1.01,0,1.89,0.12,2.65,0.37c0.76,0.25,1.39,0.58,1.89,1.01c0.51,0.43,0.89,0.93,1.14,1.49
		c0.25,0.57,0.38,1.17,0.38,1.81s-0.11,1.25-0.33,1.84c-0.22,0.58-0.52,1.14-0.9,1.69c-0.38,0.54-0.81,1.07-1.31,1.59
		c-0.5,0.52-1.01,1.04-1.55,1.56l-2.78,2.64c-0.4,0.38-0.8,0.77-1.22,1.15c-0.41,0.38-0.79,0.77-1.12,1.15
		c-0.34,0.38-0.61,0.75-0.83,1.11c-0.21,0.36-0.32,0.71-0.32,1.04c0,0.35,0.13,0.65,0.38,0.88c0.25,0.24,0.6,0.36,1.04,0.36
		c0.14,0,0.39-0.03,0.75-0.09c0.36-0.06,0.89-0.24,1.6-0.53c0.73-0.31,1.43-0.65,2.1-1.03c0.66-0.38,1.33-0.79,1.98-1.22
		c1.25-0.83,2.48-1.71,3.68-2.66c1.2-0.95,2.41-2.02,3.61-3.21c1.09-1.06,2.12-2.16,3.11-3.33c0.99-1.16,1.94-2.34,2.86-3.53
		l2.82-3.67h3.01L30.88,41.67c-0.47,0.63-0.84,1.12-1.09,1.47c-0.25,0.35-0.44,0.68-0.56,0.99c-0.09,0.18-0.14,0.37-0.14,0.55
		c0,0.15,0.02,0.29,0.06,0.4c0.04,0.12,0.13,0.22,0.26,0.31c0.18,0.09,0.39,0.14,0.62,0.14c0.17,0,0.38-0.03,0.63-0.08
		s0.56-0.15,0.93-0.29s0.8-0.34,1.3-0.6c0.5-0.26,1.07-0.6,1.71-1.01c0.87-0.54,1.74-1.11,2.61-1.72c0.86-0.61,1.78-1.32,2.74-2.13
		l0.66,0.67c-0.9,0.76-1.79,1.47-2.66,2.11c-0.87,0.64-1.79,1.25-2.75,1.84c-1.19,0.76-2.23,1.32-3.1,1.67
		c-0.87,0.35-1.65,0.53-2.34,0.53c-0.44,0-0.81-0.07-1.09-0.21c-0.28-0.14-0.51-0.31-0.68-0.53c-0.17-0.21-0.29-0.45-0.36-0.71
		c-0.07-0.26-0.1-0.51-0.1-0.76c0-0.29,0.03-0.57,0.09-0.83c0.06-0.26,0.15-0.52,0.25-0.78c0.11-0.32,0.28-0.7,0.5-1.14
		c0.23-0.44,0.48-0.88,0.76-1.34s0.56-0.91,0.85-1.35c0.29-0.44,0.56-0.83,0.8-1.15l6.77-8.74c-1.18,1.01-2.25,1.86-3.22,2.54
		c-0.97,0.68-1.7,1.19-2.19,1.53c-0.64,0.4-1.29,0.78-1.93,1.15s-1.32,0.7-2.02,1.01c-0.54,0.23-1.08,0.43-1.63,0.6
		c-0.55,0.17-1.12,0.25-1.7,0.25c-0.72,0-1.26-0.13-1.62-0.4c-0.36-0.27-0.62-0.55-0.79-0.84c-0.12-0.21-0.21-0.44-0.25-0.69
		s-0.07-0.48-0.07-0.71c0-0.78,0.14-1.46,0.41-2.05c0.28-0.59,0.59-1.13,0.94-1.62c0.64-0.87,1.38-1.69,2.2-2.47
		c0.83-0.77,1.63-1.52,2.41-2.24c0.86-0.78,1.63-1.53,2.32-2.25c0.69-0.72,1.19-1.45,1.49-2.2c0.18-0.43,0.28-0.89,0.28-1.38
		c0-0.18-0.03-0.39-0.08-0.61c-0.05-0.22-0.15-0.44-0.29-0.67c-0.14-0.22-0.33-0.44-0.57-0.64c-0.24-0.21-0.56-0.39-0.94-0.56
		c-0.38-0.17-0.78-0.28-1.18-0.34c-0.41-0.06-0.82-0.09-1.25-0.09c-1.48,0-3,0.26-4.53,0.79c-1.54,0.53-2.99,1.35-4.35,2.47
		c-0.52,0.41-1,0.85-1.43,1.31c-0.44,0.46-0.81,0.94-1.14,1.43s-0.57,1.01-0.75,1.53c-0.18,0.52-0.26,1.04-0.26,1.56
		c0,0.26,0.03,0.52,0.08,0.79c0.05,0.27,0.15,0.52,0.29,0.75c0.26,0.44,0.61,0.75,1.04,0.92c0.44,0.17,0.88,0.25,1.32,0.25
		c0.57,0,1.12-0.08,1.65-0.25c0.54-0.17,1.05-0.39,1.54-0.67c0.7-0.43,1.35-0.93,1.94-1.5c0.59-0.57,1.12-1.2,1.6-1.89
		c0.49-0.73,0.93-1.55,1.32-2.46c0.39-0.9,0.68-1.9,0.88-3.01L27.83,18.47z"/>
</g>
</svg>
